<svg width="99" height="98" viewBox="0 0 99 98" fill="none" xmlns="http://www.w3.org/2000/svg">
<path d="M98.5 49C98.5 76.062 76.562 98 49.5 98C22.438 98 0.5 76.062 0.5 49C0.5 21.938 22.438 0 49.5 0C76.562 0 98.5 21.938 98.5 49ZM10.5879 49C10.5879 70.4906 28.0094 87.9121 49.5 87.9121C70.9906 87.9121 88.4121 70.4906 88.4121 49C88.4121 27.5094 70.9906 10.0879 49.5 10.0879C28.0094 10.0879 10.5879 27.5094 10.5879 49Z" fill="#5AAD28" fill-opacity="0.5"/>
<path opacity="0.8" d="M41.533 59.1048L32.2499 49.7263C31.7501 49.2202 31.0715 48.9357 30.3639 48.9357C29.6562 48.9357 28.9776 49.2202 28.4778 49.7263C27.4345 50.7803 27.4345 52.4831 28.4778 53.5371L39.6603 64.8346C40.7036 65.8887 42.389 65.8887 43.4324 64.8346L71.7363 36.2396C72.7797 35.1855 72.7797 33.4828 71.7363 32.4287C71.2365 31.9226 70.558 31.6382 69.8503 31.6382C69.1427 31.6382 68.4641 31.9226 67.9643 32.4287L41.533 59.1048Z" fill="#0AA119"/>
</svg>
